<?xml version="1.0" encoding="UTF-8"?>
<svg xmlns="http://www.w3.org/2000/svg" viewBox="0 0 200 200" width="200" height="200">
  <defs>
    <linearGradient id="bg5" x1="0%" y1="0%" x2="100%" y2="100%">
      <stop offset="0%"   stop-color="#f0fdfa"/>
      <stop offset="100%" stop-color="#ccfbf1"/>
    </linearGradient>
  </defs>

  <!-- Background -->
  <rect width="200" height="200" fill="url(#bg5)" rx="16"/>

  <!-- Border -->
  <rect x="2" y="2" width="196" height="196" fill="none" stroke="#0d9488" stroke-width="1.5" stroke-opacity="0.2" rx="15"/>

  <!-- Icon group -->
  <g>
      <!-- water bottle -->
      <rect x="78" y="78" width="30" height="66" rx="8" fill="#0d9488" opacity=".9"/>
      <rect x="83" y="68" width="20" height="14" rx="4" fill="#0f766e"/>
      <rect x="84" y="95" width="18" height="12" rx="3" fill="white" opacity=".7"/>
      <rect x="87" y="112" width="12" height="5" rx="2" fill="white" opacity=".4"/>
      <!-- glass with bubbles -->
      <polygon points="130,78 150,78 145,142 135,142" fill="#2dd4bf" opacity=".8"/>
      <circle cx="136" cy="95"  r="3" fill="white" opacity=".6"/>
      <circle cx="143" cy="108" r="2" fill="white" opacity=".6"/>
      <circle cx="138" cy="120" r="2.5" fill="white" opacity=".5"/>
  </g>

  <!-- Category label band -->
  <rect x="0" y="158" width="200" height="42" rx="0" fill="#0d9488" opacity=".92"/>
  <rect x="0" y="158" width="200" height="42" rx="0" fill="url(#bg5)" opacity=".1"/>

  <!-- Category name (auto-wrap via 2 lines max) -->
  <text
    x="100" y="175"
    font-family="'Segoe UI', Arial, sans-serif"
    font-size="10"
    font-weight="600"
    text-anchor="middle"
    fill="white"
    opacity=".95"
  >Boissons & Eaux</text>
  
</svg>